HIERARCHY
ROOT joint_Root
{
	OFFSET 0.0 0.0 0.0
	CHANNELS 6 Xposition Yposition Zposition Zrotation Xrotation Yrotation 
	JOINT Hips
	{
		OFFSET -0.726466 93.3139 -2.00062
		CHANNELS 6 Xposition Yposition Zposition Zrotation Xrotation Yrotation 
		JOINT Spine
		{
			OFFSET 15.7357 0.0 0.0
			CHANNELS 6 Xposition Yposition Zposition Zrotation Xrotation Yrotation 
			JOINT Chest
			{
				OFFSET 8.98455 -0.406207 0.0
				CHANNELS 6 Xposition Yposition Zposition Zrotation Xrotation Yrotation 
				JOINT Neck
				{
					OFFSET 16.3773 0.0 0.0
					CHANNELS 6 Xposition Yposition Zposition Zrotation Xrotation Yrotation 
					JOINT Head
					{
						OFFSET 6.45672 0.0 0.0
						CHANNELS 6 Xposition Yposition Zposition Zrotation Xrotation Yrotation 
						End Site
						{
							OFFSET 0.0 0.0 0.0
						}
					}
				}
				JOINT Shoulder_L
				{
					OFFSET 12.9942 -0.242716 4.98039
					CHANNELS 6 Xposition Yposition Zposition Zrotation Xrotation Yrotation 
					JOINT UpperArm_L
					{
						OFFSET 5.34809 0.0 0.0
						CHANNELS 6 Xposition Yposition Zposition Zrotation Xrotation Yrotation 
						JOINT LowerArm_L
						{
							OFFSET 24.3286 1.87007e-05 0.0
							CHANNELS 6 Xposition Yposition Zposition Zrotation Xrotation Yrotation 
							JOINT Hand_L
							{
								OFFSET 22.2916 0.0 0.0
								CHANNELS 6 Xposition Yposition Zposition Zrotation Xrotation Yrotation 
								End Site
								{
									OFFSET 0.0 0.0 0.0
								}
							}
						}
					}
				}
				JOINT Shoulder_R
				{
					OFFSET 12.9945 -0.242716 -4.98039
					CHANNELS 6 Xposition Yposition Zposition Zrotation Xrotation Yrotation 
					JOINT UpperArm_R
					{
						OFFSET -5.34813 0.0 0.0
						CHANNELS 6 Xposition Yposition Zposition Zrotation Xrotation Yrotation 
						JOINT LowerArm_R
						{
							OFFSET -24.3289 0.000322201 0.0
							CHANNELS 6 Xposition Yposition Zposition Zrotation Xrotation Yrotation 
							JOINT Hand_R
							{
								OFFSET -22.2915 -0.000108084 0.0
								CHANNELS 6 Xposition Yposition Zposition Zrotation Xrotation Yrotation 
								End Site
								{
									OFFSET 0.0 0.0 0.0
								}
							}
						}
					}
				}
			}
		}
		JOINT UpperLeg_L
		{
			OFFSET -2.19248 -6.46944 0.0
			CHANNELS 6 Xposition Yposition Zposition Zrotation Xrotation Yrotation 
			JOINT LowerLeg_L
			{
				OFFSET 39.0811 0.0 -1.23785e-05
				CHANNELS 6 Xposition Yposition Zposition Zrotation Xrotation Yrotation 
				JOINT Foot_L
				{
					OFFSET 40.9854 0.0 -1.26872e-05
					CHANNELS 6 Xposition Yposition Zposition Zrotation Xrotation Yrotation 
					JOINT Toes_L
					{
						OFFSET 11.7543 0.0 0.0
						CHANNELS 6 Xposition Yposition Zposition Zrotation Xrotation Yrotation 
						End Site
						{
							OFFSET 0.0 0.0 0.0
						}
					}
				}
			}
		}
		JOINT UpperLeg_R
		{
			OFFSET -2.19251 6.46944 0.0
			CHANNELS 6 Xposition Yposition Zposition Zrotation Xrotation Yrotation 
			JOINT LowerLeg_R
			{
				OFFSET -39.0811 -0.00228153 -0.0401928
				CHANNELS 6 Xposition Yposition Zposition Zrotation Xrotation Yrotation 
				JOINT Foot_R
				{
					OFFSET -40.9854 0.0 0.0
					CHANNELS 6 Xposition Yposition Zposition Zrotation Xrotation Yrotation 
					JOINT Toes_R
					{
						OFFSET -11.7543 0.0 0.0
						CHANNELS 6 Xposition Yposition Zposition Zrotation Xrotation Yrotation 
						End Site
						{
							OFFSET 0.0 0.0 0.0
						}
					}
				}
			}
		}
	}
}
MOTION
Frames:	6
Frame Time:	0.0333333
0.000000 0.000000 0.000000 0.000000 0.000000 -0.000000 -0.941827 92.088600 -1.699720 87.640900 -0.064489 2.652730 15.735700 0.000005 -0.000001 84.629800 85.249600 -84.262600 8.984550 -0.406207 -0.000000 1.696270 -0.908123 0.747163 16.377300 -0.000001 -0.000001 3.565130 -1.771350 -0.148453 6.456720 -0.000001 -0.000000 -0.721351 -0.140178 3.600600 12.994200 -0.242716 4.980390 -89.694000 -0.922451 -71.645800 5.348090 -0.000007 -0.000001 -65.735500 35.041400 -10.914300 24.328600 0.000019 0.000005 2.874530 4.889130 -30.504200 22.291600 -0.000001 0.000005 4.961270 5.618890 -12.544200 12.994500 -0.242716 -4.980390 87.344900 7.035410 -69.262600 -5.348130 -0.000001 -0.000004 -64.586200 31.307000 -11.101200 -24.328900 0.000322 -0.000009 -1.159390 -2.172520 -28.073900 -22.291500 -0.000108 -0.000004 6.136590 5.568510 -9.612230 -2.192480 -6.469440 -0.000000 -168.316000 -15.449400 -3.331430 39.081100 -0.000007 -0.000012 -0.178674 0.473430 20.677000 40.985400 -0.000006 -0.000013 -6.521950 4.438400 -62.714100 11.754300 -0.000000 0.000003 -0.000129 -0.001276 -16.626200 -2.192510 6.469440 -0.000001 174.465000 21.857000 178.560000 -39.081100 -0.002282 -0.040193 -0.026691 0.086323 19.172100 -40.985400 0.000008 0.000006 -2.752090 3.627310 -62.905100 -11.754300 -0.000006 -0.000006 -0.004721 -0.058736 -18.962800
0.000000 0.000000 0.000000 0.000000 0.000000 -0.000000 -0.925795 92.084700 -1.722840 87.635400 -0.067724 2.730340 15.735700 0.000005 -0.000001 84.619000 85.217800 -84.271900 8.984550 -0.406207 -0.000000 1.759350 -0.914599 0.707591 16.377300 -0.000001 -0.000001 3.517360 -1.684690 -0.190743 6.456720 -0.000001 -0.000000 -0.757092 -0.070643 3.498000 12.994200 -0.242716 4.980390 -89.671800 -0.988556 -71.631800 5.348090 -0.000007 -0.000001 -64.791500 36.888700 -11.161100 24.328600 0.000019 0.000005 2.757530 4.533020 -31.358900 22.291600 -0.000001 0.000005 6.067770 5.636980 -13.877300 12.994500 -0.242716 -4.980390 87.325900 7.105720 -69.315100 -5.348130 -0.000001 -0.000004 -63.531100 31.730400 -11.956400 -24.328900 0.000322 -0.000009 -1.333870 -2.432920 -28.726200 -22.291500 -0.000108 -0.000004 5.847830 5.560770 -9.225010 -2.192480 -6.469440 -0.000000 -168.299000 -15.444600 -3.294420 39.081100 -0.000007 -0.000012 -0.179564 0.474369 20.733500 40.985400 -0.000006 -0.000013 -6.503550 4.469590 -62.731100 11.754300 -0.000000 0.000003 -0.000155 -0.001494 -16.634300 -2.192510 6.469440 -0.000001 174.433000 21.803700 178.624000 -39.081100 -0.002282 -0.040193 -0.026328 0.085247 19.178800 -40.985400 0.000008 0.000006 -2.828420 3.606020 -62.887700 -11.754300 -0.000006 -0.000006 -0.005005 -0.061515 -19.076000
0.000000 0.000000 0.000000 0.000000 0.000000 -0.000000 -0.897225 92.090500 -1.762010 87.622200 -0.075296 2.791850 15.735700 0.000005 -0.000001 84.533500 85.189100 -84.208800 8.984550 -0.406207 -0.000000 1.814980 -0.932915 0.663718 16.377300 -0.000001 -0.000001 3.483190 -1.534300 -0.221665 6.456720 -0.000001 -0.000000 -0.850087 0.046872 3.332710 12.994200 -0.242716 4.980390 -89.622200 -1.137330 -71.624500 5.348090 -0.000007 -0.000001 -63.396900 39.663100 -11.651100 24.328600 0.000019 0.000005 2.297000 3.597020 -32.592500 22.291600 -0.000001 0.000005 7.654050 5.653850 -15.393500 12.994500 -0.242716 -4.980390 87.301300 7.178390 -69.333100 -5.348130 -0.000001 -0.000004 -62.022300 31.904100 -13.293100 -24.328900 0.000322 -0.000009 -1.200760 -2.095380 -29.801900 -22.291500 -0.000108 -0.000004 6.097510 5.547770 -8.601450 -2.192480 -6.469440 -0.000000 -168.306000 -15.408600 -3.269210 39.081100 -0.000007 -0.000012 -0.179516 0.473701 20.755200 40.985400 -0.000006 -0.000013 -6.484300 4.404240 -62.727400 11.754300 -0.000000 0.000003 -0.000147 -0.001429 -16.631900 -2.192510 6.469440 -0.000001 174.422000 21.828400 178.660000 -39.081100 -0.002282 -0.040193 -0.024063 0.078753 19.174800 -40.985400 0.000008 0.000006 -2.682550 3.633170 -62.864100 -11.754300 -0.000006 -0.000006 -0.004756 -0.059082 -18.976900
0.000000 0.000000 0.000000 0.000000 0.000000 -0.000000 -0.852469 92.086900 -1.822840 87.653100 -0.217089 2.825890 15.735700 0.000005 -0.000001 84.464500 85.175500 -84.188700 8.984550 -0.406207 -0.000000 1.840540 -0.944446 0.566367 16.377300 -0.000001 -0.000001 3.410140 -1.409220 -0.284561 6.456720 -0.000001 -0.000000 -0.938469 0.209368 3.193920 12.994200 -0.242716 4.980390 -89.567900 -1.298390 -71.591800 5.348090 -0.000007 -0.000001 -61.305200 43.308800 -12.245200 24.328600 0.000019 0.000005 1.695790 2.432350 -34.899200 22.291600 -0.000001 0.000005 8.761830 5.667950 -17.073800 12.994500 -0.242716 -4.980390 87.277200 7.237450 -69.318600 -5.348130 -0.000001 -0.000004 -59.939600 31.837000 -15.265200 -24.328900 0.000322 -0.000009 -0.820919 -1.353670 -31.205000 -22.291500 -0.000108 -0.000004 7.235050 5.536620 -8.089810 -2.192480 -6.469440 -0.000000 -168.369000 -15.484500 -3.288340 39.081100 -0.000007 -0.000012 -0.179635 0.471920 20.839500 40.985400 -0.000006 -0.000013 -6.450790 4.323340 -62.750100 11.754300 -0.000000 0.000003 -0.000142 -0.001387 -16.630400 -2.192510 6.469440 -0.000001 174.330000 21.784000 178.621000 -39.081100 -0.002282 -0.040193 -0.029061 0.093048 19.189500 -40.985400 0.000008 0.000006 -2.842600 3.798840 -62.781800 -11.754300 -0.000006 -0.000006 -0.004772 -0.059239 -18.983300
0.000000 0.000000 0.000000 0.000000 0.000000 -0.000000 -0.802315 92.099700 -1.882270 87.662700 -0.368898 2.899410 15.735700 0.000005 -0.000001 84.377500 85.140800 -84.159100 8.984550 -0.406207 -0.000000 1.907800 -0.962710 0.452412 16.377300 -0.000001 -0.000001 3.317770 -1.255000 -0.306734 6.456720 -0.000001 -0.000000 -1.121010 0.325557 3.017130 12.994200 -0.242716 4.980390 -89.511900 -1.458540 -71.494800 5.348090 -0.000007 -0.000001 -58.682400 46.856500 -12.999100 24.328600 0.000019 0.000005 2.155960 2.718100 -38.443500 22.291600 -0.000001 0.000005 9.183690 5.677550 -18.841200 12.994500 -0.242716 -4.980390 87.281100 7.209780 -69.273700 -5.348130 -0.000001 -0.000004 -57.586300 31.110000 -17.816200 -24.328900 0.000322 -0.000009 -0.078472 -0.119884 -32.850800 -22.291500 -0.000108 -0.000004 8.821750 5.526970 -7.662640 -2.192480 -6.469440 -0.000000 -168.402000 -15.452400 -3.186300 39.081100 -0.000007 -0.000012 -0.178056 0.469032 20.788200 40.985400 -0.000006 -0.000013 -6.441640 4.176830 -62.730700 11.754300 -0.000000 0.000003 -0.000149 -0.001444 -16.632400 -2.192510 6.469440 -0.000001 174.306000 21.711200 178.649000 -39.081100 -0.002282 -0.040193 -0.023873 0.078276 19.158800 -40.985400 0.000008 0.000006 -2.735230 3.817570 -62.716600 -11.754300 -0.000006 -0.000006 -0.004897 -0.060466 -19.033300
0.000000 0.000000 0.000000 0.000000 0.000000 -0.000000 -0.754918 92.104400 -1.975670 87.649400 -0.592226 2.853600 15.735700 0.000005 -0.000001 84.306000 85.151900 -84.148800 8.984550 -0.406207 -0.000000 1.883970 -0.969486 0.330142 16.377300 -0.000001 -0.000001 3.226810 -1.119120 -0.384320 6.456720 -0.000001 -0.000000 -1.276330 0.416444 2.868430 12.994200 -0.242716 4.980390 -89.429700 -1.689400 -71.342300 5.348090 -0.000007 -0.000001 -55.136500 50.727700 -14.155700 24.328600 0.000019 0.000005 2.862650 3.045020 -43.268400 22.291600 -0.000001 0.000005 9.675630 5.681590 -20.401800 12.994500 -0.242716 -4.980390 87.341400 7.040170 -69.250500 -5.348130 -0.000001 -0.000004 -54.892100 29.950200 -20.854700 -24.328900 0.000322 -0.000009 0.861776 1.232540 -34.997700 -22.291500 -0.000108 -0.000004 10.028400 5.519770 -7.352330 -2.192480 -6.469440 -0.000000 -168.438000 -15.531400 -3.267440 39.081100 -0.000007 -0.000012 -0.177509 0.466353 20.838600 40.985400 -0.000006 -0.000013 -6.423280 4.052940 -62.734900 11.754300 -0.000000 0.000003 -0.000143 -0.001392 -16.630500 -2.192510 6.469440 -0.000001 174.341000 21.538300 178.491000 -39.081100 -0.002282 -0.040193 -0.026374 0.085583 19.136700 -40.985400 0.000008 0.000006 -2.791320 3.873840 -62.598300 -11.754300 -0.000006 -0.000006 -0.004751 -0.059033 -18.974900
